<?xml version="1.0" standalone="no"?>
<!DOCTYPE svg PUBLIC "-//W3C//DTD SVG 20010904//EN"
 "http://www.w3.org/TR/2001/REC-SVG-20010904/DTD/svg10.dtd">
<svg version="1.0" xmlns="http://www.w3.org/2000/svg"
 width="512.000000pt" height="512.000000pt" viewBox="0 0 512.000000 512.000000"
 preserveAspectRatio="xMidYMid meet">

<g transform="translate(0.000000,512.000000) scale(0.100000,-0.100000)"
fill="#007DFF" stroke="none">
<path d="M1468 5103 c600 -2 1584 -2 2185 0 600 1 109 2 -1093 2 -1202 0
-1693 -1 -1092 -2z"/>
<path d="M15 2560 c0 -1202 1 -1693 2 -1092 2 600 2 1584 0 2185 -1 600 -2
109 -2 -1093z"/>
<path d="M5105 2560 c0 -1202 1 -1693 2 -1092 2 600 2 1584 0 2185 -1 600 -2
109 -2 -1093z"/>
<path d="M770 2525 l0 -2095 465 0 465 0 0 1025 c0 914 2 1025 15 1025 9 0 18
-8 22 -17 15 -46 117 -247 133 -263 3 -3 65 -95 139 -205 492 -734 909 -1356
973 -1450 l74 -110 592 -3 592 -2 -75 102 c-41 57 -78 108 -83 113 -4 6 -23
33 -42 60 -19 28 -38 52 -41 55 -3 3 -24 32 -47 65 -39 56 -352 488 -369 510
-5 6 -24 32 -43 60 -19 27 -39 54 -43 60 -4 5 -27 37 -51 70 -24 33 -130 180
-237 326 -107 147 -201 277 -209 289 -8 12 -23 33 -33 46 -87 113 -307 421
-307 429 0 9 77 117 257 363 37 51 74 100 80 110 7 9 25 33 40 53 16 20 35 47
43 59 29 43 133 185 139 190 3 3 22 28 41 55 19 28 38 55 42 60 5 6 71 96 147
200 77 105 258 352 404 550 l264 360 -376 3 c-207 2 -458 0 -559 -3 l-183 -7
-256 -387 c-464 -701 -658 -994 -785 -1186 -115 -175 -192 -308 -217 -377 -6
-16 -17 -28 -26 -28 -13 0 -15 110 -15 995 l0 995 -465 0 -465 0 0 -2095z"/>
<path d="M1468 13 c600 -2 1584 -2 2185 0 600 1 109 2 -1093 2 -1202 0 -1693
-1 -1092 -2z"/>
</g>
</svg>
